<?xml version="1.0" encoding="UTF-8"?>
<!DOCTYPE svg PUBLIC "-//W3C//DTD SVG 1.0//EN" "http://www.w3.org/TR/2001/REC-SVG-20010904/DTD/svg10.dtd">
<!-- Creator: CorelDRAW Home & Student 2019 -->
<svg xmlns="http://www.w3.org/2000/svg" xml:space="preserve" width="0.669429in" height="0.0933346in" version="1.0" style="shape-rendering:geometricPrecision; text-rendering:geometricPrecision; image-rendering:optimizeQuality; fill-rule:evenodd; clip-rule:evenodd"
viewBox="0 0 63.59 8.87"
 xmlns:xlink="http://www.w3.org/1999/xlink">
 <defs>
  <style type="text/css">
   <![CDATA[
    .fil1 {fill:#40B948}
    .fil2 {fill:#F88C37}
    .fil0 {fill:#2B484F;fill-rule:nonzero}
   ]]>
  </style>
 </defs>
 <g id="Layer_x0020_1">
  <metadata id="CorelCorpID_0Corel-Layer"/>
  <g id="_718193136">
   <path class="fil0" d="M16.4 5.52c-0.26,0 -0.51,-0.03 -0.73,-0.1 -0.23,-0.06 -0.43,-0.15 -0.61,-0.27 -0.18,-0.12 -0.32,-0.25 -0.44,-0.39 -0.12,-0.14 -0.19,-0.29 -0.23,-0.45l0.99 -0.3c0.06,0.17 0.18,0.31 0.34,0.43 0.16,0.12 0.37,0.18 0.61,0.19 0.26,0 0.48,-0.05 0.64,-0.17 0.17,-0.12 0.25,-0.27 0.25,-0.46 0,-0.16 -0.07,-0.3 -0.2,-0.41 -0.13,-0.11 -0.31,-0.2 -0.54,-0.26l-0.67 -0.18c-0.25,-0.06 -0.47,-0.16 -0.67,-0.29 -0.19,-0.13 -0.34,-0.29 -0.45,-0.49 -0.11,-0.19 -0.16,-0.42 -0.16,-0.67 0,-0.49 0.16,-0.87 0.49,-1.14 0.32,-0.27 0.78,-0.41 1.37,-0.41 0.33,0 0.62,0.05 0.87,0.14 0.25,0.1 0.46,0.23 0.63,0.41 0.17,0.18 0.3,0.39 0.38,0.63l-0.98 0.3c-0.06,-0.17 -0.17,-0.31 -0.33,-0.43 -0.16,-0.12 -0.36,-0.18 -0.6,-0.18 -0.25,0 -0.44,0.06 -0.58,0.17 -0.14,0.11 -0.21,0.27 -0.21,0.48 0,0.16 0.06,0.29 0.17,0.38 0.11,0.09 0.26,0.17 0.46,0.21l0.68 0.17c0.44,0.11 0.79,0.3 1.04,0.58 0.25,0.28 0.37,0.6 0.37,0.94 0,0.31 -0.07,0.57 -0.22,0.8 -0.15,0.23 -0.36,0.41 -0.64,0.54 -0.28,0.13 -0.62,0.19 -1.02,0.19zm2.67 -0.09l0 -3.7 0.98 0 0 3.7 -0.98 0zm0.49 -4.3c-0.15,0 -0.28,-0.06 -0.39,-0.17 -0.11,-0.11 -0.17,-0.24 -0.17,-0.4 0,-0.15 0.06,-0.28 0.17,-0.4 0.11,-0.11 0.24,-0.17 0.39,-0.17 0.15,0 0.29,0.06 0.4,0.17 0.11,0.11 0.17,0.24 0.17,0.4 0,0.15 -0.06,0.29 -0.17,0.4 -0.11,0.11 -0.24,0.17 -0.4,0.17zm1.39 4.3l0 -3.7 0.92 0 0.06 0.68 0 3.02 -0.98 0zm2.45 0l0 -1.9 0.98 -0.22 0 2.12 -0.98 0zm2.46 0l0 -1.9 0.98 -0.22 0 2.12 -0.98 0zm-2.46 -1.9c0,-0.25 -0.03,-0.45 -0.08,-0.58 -0.06,-0.14 -0.14,-0.24 -0.24,-0.3 -0.1,-0.06 -0.22,-0.09 -0.36,-0.09 -0.25,-0 -0.45,0.07 -0.58,0.23 -0.14,0.16 -0.2,0.39 -0.2,0.7l-0.33 0c0,-0.39 0.06,-0.73 0.17,-1 0.12,-0.27 0.28,-0.48 0.48,-0.63 0.21,-0.15 0.45,-0.22 0.73,-0.22 0.45,0 0.79,0.14 1.03,0.41 0.24,0.27 0.36,0.69 0.35,1.26l-0.98 0.22zm2.46 0c0,-0.25 -0.03,-0.45 -0.09,-0.58 -0.06,-0.14 -0.14,-0.24 -0.24,-0.3 -0.1,-0.06 -0.22,-0.09 -0.37,-0.09 -0.25,-0 -0.45,0.07 -0.58,0.23 -0.14,0.16 -0.2,0.39 -0.2,0.7l-0.33 0c0,-0.39 0.06,-0.73 0.17,-1 0.12,-0.27 0.28,-0.48 0.49,-0.63 0.21,-0.15 0.46,-0.22 0.74,-0.22 0.45,0 0.79,0.14 1.03,0.41 0.24,0.27 0.36,0.69 0.36,1.26l-0.98 0.22zm3.49 1.98c-0.38,0 -0.71,-0.08 -1,-0.25 -0.29,-0.17 -0.52,-0.39 -0.69,-0.68 -0.17,-0.29 -0.25,-0.63 -0.25,-1.01 0,-0.38 0.08,-0.72 0.24,-1.01 0.16,-0.29 0.39,-0.52 0.68,-0.68 0.29,-0.17 0.62,-0.25 1,-0.25 0.38,0 0.72,0.08 1.01,0.25 0.29,0.17 0.52,0.39 0.68,0.68 0.16,0.29 0.24,0.63 0.24,1.01 0,0.38 -0.08,0.72 -0.24,1.01 -0.16,0.29 -0.39,0.52 -0.68,0.68 -0.29,0.17 -0.62,0.25 -1,0.25zm0 -0.9c0.18,0 0.34,-0.04 0.48,-0.13 0.14,-0.09 0.25,-0.21 0.32,-0.37 0.08,-0.16 0.11,-0.33 0.11,-0.54 0,-0.2 -0.04,-0.38 -0.12,-0.54 -0.08,-0.16 -0.19,-0.28 -0.33,-0.37 -0.14,-0.09 -0.3,-0.13 -0.49,-0.13 -0.18,0 -0.34,0.04 -0.48,0.13 -0.14,0.09 -0.25,0.21 -0.33,0.37 -0.08,0.16 -0.12,0.33 -0.12,0.54 0,0.2 0.04,0.38 0.12,0.54 0.08,0.16 0.19,0.28 0.33,0.37 0.14,0.09 0.31,0.13 0.49,0.13zm5.2 0.81l-0.05 -0.69 0 -4.49 0.98 0 0 5.18 -0.93 0zm-1.16 0.09c-0.34,0 -0.64,-0.08 -0.88,-0.24 -0.25,-0.16 -0.44,-0.38 -0.58,-0.67 -0.14,-0.29 -0.21,-0.63 -0.21,-1.03 0,-0.4 0.07,-0.74 0.21,-1.03 0.14,-0.29 0.33,-0.51 0.58,-0.67 0.25,-0.16 0.54,-0.24 0.88,-0.24 0.31,0 0.57,0.08 0.79,0.24 0.22,0.16 0.38,0.38 0.49,0.67 0.11,0.29 0.17,0.63 0.17,1.03 0,0.39 -0.06,0.74 -0.17,1.03 -0.11,0.29 -0.28,0.52 -0.49,0.67 -0.21,0.16 -0.48,0.24 -0.79,0.24zm0.25 -0.9c0.17,0 0.32,-0.04 0.45,-0.13 0.13,-0.09 0.23,-0.21 0.31,-0.37 0.07,-0.16 0.11,-0.34 0.11,-0.54 0,-0.2 -0.04,-0.38 -0.11,-0.54 -0.07,-0.16 -0.18,-0.28 -0.31,-0.37 -0.13,-0.09 -0.28,-0.13 -0.46,-0.13 -0.18,0 -0.33,0.04 -0.47,0.13 -0.13,0.09 -0.24,0.21 -0.32,0.37 -0.08,0.16 -0.12,0.34 -0.12,0.54 0,0.2 0.04,0.38 0.12,0.54 0.08,0.16 0.19,0.28 0.32,0.37 0.14,0.09 0.29,0.13 0.47,0.13zm4.35 0.9c-0.37,0 -0.69,-0.08 -0.97,-0.25 -0.28,-0.17 -0.5,-0.39 -0.66,-0.68 -0.16,-0.29 -0.24,-0.63 -0.24,-1.01 0,-0.38 0.08,-0.72 0.25,-1.01 0.17,-0.29 0.39,-0.52 0.68,-0.68 0.29,-0.17 0.62,-0.25 1,-0.25 0.32,0 0.62,0.09 0.89,0.26 0.27,0.17 0.49,0.42 0.66,0.75 0.17,0.33 0.25,0.73 0.25,1.2l-0.99 0c0,-0.33 -0.03,-0.59 -0.1,-0.78 -0.07,-0.19 -0.17,-0.34 -0.3,-0.42 -0.13,-0.09 -0.28,-0.13 -0.45,-0.13 -0.19,0 -0.36,0.04 -0.49,0.12 -0.13,0.08 -0.23,0.2 -0.3,0.36 -0.07,0.16 -0.1,0.37 -0.1,0.63 0,0.22 0.04,0.41 0.13,0.56 0.09,0.15 0.21,0.26 0.36,0.34 0.15,0.08 0.31,0.11 0.49,0.11 0.19,0 0.35,-0.04 0.47,-0.13 0.12,-0.08 0.21,-0.19 0.28,-0.33l0.92 0.36c-0.1,0.21 -0.24,0.39 -0.4,0.54 -0.17,0.15 -0.36,0.27 -0.59,0.34 -0.23,0.08 -0.49,0.12 -0.78,0.12zm-1.24 -1.68l0.01 -0.76 2.61 0 0 0.76 -2.61 0zm3.67 1.59l0 -5.18 0.98 0 0 5.18 -0.98 0zm6.03 -2.14l-0.96 -0.24 1.67 -2.8 1.15 0 -1.87 3.04zm-0.98 2.14l0 -2.49 1.01 0 0 2.49 -1.01 0zm0.03 -2.14l-1.87 -3.04 1.15 0 1.67 2.8 -0.96 0.24zm4.88 2.14l-0.04 -0.75 0 -1.13c0,-0.22 -0.02,-0.41 -0.07,-0.57 -0.05,-0.16 -0.12,-0.27 -0.23,-0.36 -0.1,-0.08 -0.24,-0.12 -0.4,-0.12 -0.15,0 -0.28,0.03 -0.4,0.1 -0.12,0.06 -0.22,0.17 -0.3,0.31l-0.89 -0.3c0.07,-0.16 0.17,-0.31 0.3,-0.46 0.13,-0.15 0.31,-0.27 0.52,-0.37 0.21,-0.1 0.48,-0.14 0.79,-0.14 0.37,0 0.68,0.07 0.93,0.2 0.25,0.13 0.44,0.33 0.56,0.59 0.12,0.26 0.18,0.58 0.18,0.95l-0.02 2.05 -0.93 0zm-1.02 0.09c-0.44,0 -0.79,-0.1 -1.03,-0.3 -0.24,-0.2 -0.37,-0.48 -0.37,-0.84 0,-0.39 0.13,-0.69 0.4,-0.89 0.26,-0.2 0.64,-0.3 1.11,-0.3l0.94 0 0 0.73 -0.6 0c-0.32,0 -0.54,0.04 -0.67,0.11 -0.12,0.08 -0.18,0.18 -0.18,0.32 0,0.11 0.05,0.19 0.15,0.26 0.1,0.06 0.24,0.09 0.41,0.09 0.16,0 0.3,-0.04 0.42,-0.11 0.12,-0.08 0.22,-0.18 0.29,-0.3 0.07,-0.12 0.11,-0.25 0.11,-0.37l0.26 0c0,0.5 -0.1,0.9 -0.29,1.18 -0.19,0.28 -0.51,0.42 -0.95,0.42zm2.75 -0.09l0 -3.7 0.92 0 0.06 0.68 0 3.02 -0.98 0zm2.45 0l0 -1.9 0.98 -0.22 0 2.12 -0.98 0zm0 -1.9c0,-0.25 -0.03,-0.45 -0.08,-0.58 -0.06,-0.14 -0.14,-0.24 -0.24,-0.3 -0.1,-0.06 -0.22,-0.09 -0.36,-0.09 -0.25,-0 -0.45,0.07 -0.58,0.23 -0.14,0.16 -0.2,0.39 -0.2,0.7l-0.33 0c0,-0.39 0.06,-0.73 0.17,-1 0.12,-0.27 0.28,-0.48 0.48,-0.63 0.21,-0.15 0.45,-0.22 0.73,-0.22 0.45,0 0.79,0.14 1.03,0.41 0.24,0.27 0.36,0.69 0.35,1.26l-0.98 0.22zm1.75 1.9l0 -5.18 0.98 0 0 5.18 -0.98 0zm1.88 0l0 -3.7 0.98 0 0 3.7 -0.98 0zm0.49 -4.3c-0.15,0 -0.28,-0.06 -0.39,-0.17 -0.11,-0.11 -0.17,-0.24 -0.17,-0.4 0,-0.15 0.06,-0.28 0.17,-0.4 0.11,-0.11 0.24,-0.17 0.39,-0.17 0.15,0 0.29,0.06 0.4,0.17 0.11,0.11 0.17,0.24 0.17,0.4 0,0.15 -0.06,0.29 -0.17,0.4 -0.11,0.11 -0.24,0.17 -0.4,0.17zm2.33 3.36l-0.58 -0.67 1.9 -2.09 1.16 0 -2.47 2.76zm-0.93 0.94l0 -5.18 0.98 0 0 5.18 -0.98 0zm2.37 0l-1.23 -1.79 0.64 -0.67 1.74 2.47 -1.15 0z"/>
   <g>
    <g>
     <rect class="fil1" x="3.46" y="2.89" width="2.31" height="2.89" rx="0.16" ry="0.47"/>
     <rect class="fil1" x="-0" y="1.51" width="2.31" height="4.27" rx="0.16" ry="0.7"/>
     <rect class="fil1" x="6.93" y="-0" width="2.31" height="5.77" rx="0.16" ry="0.95"/>
    </g>
    <path class="fil2" d="M4.38 8.73l-0.87 -1.37c-0.06,-0.09 -0.06,-0.2 -0.01,-0.29 0.05,-0.09 0.14,-0.15 0.25,-0.15l1.74 0c0.11,0 0.2,0.05 0.25,0.15 0.05,0.09 0.05,0.2 -0.01,0.29l-0.87 1.37c-0.05,0.08 -0.14,0.13 -0.24,0.13 -0.1,0 -0.19,-0.05 -0.24,-0.13z"/>
   </g>
  </g>
 </g>
</svg>
