<?xml version="1.0" encoding="UTF-8"?>
<!DOCTYPE svg PUBLIC "-//W3C//DTD SVG 1.0//EN" "http://www.w3.org/TR/2001/REC-SVG-20010904/DTD/svg10.dtd">
<!-- Creator: CorelDRAW Home & Student 2019 -->
<svg xmlns="http://www.w3.org/2000/svg" xml:space="preserve" width="0.860681in" height="0.120004in" version="1.0" style="shape-rendering:geometricPrecision; text-rendering:geometricPrecision; image-rendering:optimizeQuality; fill-rule:evenodd; clip-rule:evenodd"
viewBox="0 0 108.05 15.07"
 xmlns:xlink="http://www.w3.org/1999/xlink">
 <defs>
  <style type="text/css">
   <![CDATA[
    .fil1 {fill:#40B948}
    .fil2 {fill:#F88C37}
    .fil0 {fill:#2B484F;fill-rule:nonzero}
   ]]>
  </style>
 </defs>
 <g id="Layer_x0020_1">
  <metadata id="CorelCorpID_0Corel-Layer"/>
  <g id="_719395248">
   <path class="fil0" d="M27.86 9.37c-0.44,0 -0.86,-0.05 -1.25,-0.16 -0.39,-0.11 -0.73,-0.26 -1.03,-0.46 -0.3,-0.2 -0.55,-0.42 -0.75,-0.66 -0.2,-0.24 -0.33,-0.5 -0.38,-0.77l1.69 -0.5c0.11,0.29 0.3,0.53 0.58,0.74 0.28,0.21 0.63,0.31 1.04,0.32 0.44,0.01 0.81,-0.09 1.09,-0.29 0.28,-0.2 0.42,-0.46 0.42,-0.78 0,-0.28 -0.11,-0.51 -0.33,-0.7 -0.22,-0.19 -0.53,-0.33 -0.91,-0.43l-1.14 -0.3c-0.43,-0.11 -0.81,-0.27 -1.13,-0.5 -0.33,-0.22 -0.58,-0.5 -0.77,-0.82 -0.18,-0.33 -0.28,-0.71 -0.28,-1.14 0,-0.83 0.27,-1.48 0.82,-1.94 0.55,-0.47 1.33,-0.7 2.33,-0.7 0.56,0 1.05,0.08 1.48,0.25 0.42,0.16 0.78,0.4 1.06,0.7 0.29,0.3 0.5,0.66 0.65,1.07l-1.67 0.52c-0.1,-0.29 -0.28,-0.53 -0.55,-0.73 -0.27,-0.2 -0.61,-0.3 -1.02,-0.3 -0.42,0 -0.75,0.1 -0.99,0.29 -0.24,0.19 -0.36,0.47 -0.36,0.82 0,0.28 0.09,0.49 0.28,0.65 0.19,0.16 0.45,0.28 0.77,0.36l1.16 0.29c0.75,0.18 1.34,0.52 1.76,0.99 0.42,0.48 0.63,1.01 0.63,1.6 0,0.52 -0.13,0.97 -0.38,1.36 -0.25,0.39 -0.62,0.69 -1.09,0.91 -0.48,0.22 -1.06,0.33 -1.74,0.33zm4.54 -0.15l0 -6.29 1.66 0 0 6.29 -1.66 0zm0.83 -7.31c-0.25,0 -0.47,-0.09 -0.67,-0.28 -0.19,-0.19 -0.29,-0.41 -0.29,-0.67 0,-0.26 0.1,-0.48 0.29,-0.67 0.19,-0.19 0.42,-0.28 0.67,-0.28 0.26,0 0.48,0.09 0.67,0.28 0.19,0.19 0.28,0.41 0.28,0.67 0,0.26 -0.09,0.48 -0.28,0.67 -0.19,0.19 -0.41,0.28 -0.67,0.28zm2.36 7.31l0 -6.29 1.56 0 0.1 1.16 0 5.13 -1.66 0zm4.16 0l0 -3.22 1.66 -0.38 0 3.6 -1.66 0zm4.18 0l0 -3.22 1.66 -0.38 0 3.6 -1.66 0zm-4.18 -3.22c0,-0.43 -0.05,-0.76 -0.14,-0.99 -0.1,-0.24 -0.23,-0.4 -0.41,-0.51 -0.18,-0.11 -0.38,-0.16 -0.62,-0.16 -0.43,-0.01 -0.76,0.12 -0.99,0.39 -0.23,0.27 -0.35,0.67 -0.35,1.2l-0.55 0c0,-0.67 0.1,-1.24 0.3,-1.7 0.2,-0.47 0.47,-0.82 0.82,-1.07 0.35,-0.25 0.77,-0.37 1.25,-0.37 0.76,0 1.35,0.23 1.76,0.7 0.41,0.47 0.61,1.18 0.6,2.14l-1.66 0.38zm4.18 0c0,-0.43 -0.05,-0.76 -0.15,-0.99 -0.1,-0.24 -0.24,-0.4 -0.41,-0.51 -0.17,-0.11 -0.38,-0.16 -0.62,-0.16 -0.43,-0.01 -0.76,0.12 -0.99,0.39 -0.23,0.27 -0.35,0.67 -0.35,1.2l-0.55 0c0,-0.67 0.1,-1.24 0.3,-1.7 0.2,-0.47 0.47,-0.82 0.83,-1.07 0.36,-0.25 0.77,-0.37 1.25,-0.37 0.76,0 1.35,0.23 1.75,0.7 0.4,0.47 0.6,1.18 0.6,2.14l-1.66 0.38zm5.94 3.37c-0.64,0 -1.21,-0.14 -1.71,-0.42 -0.5,-0.28 -0.89,-0.67 -1.17,-1.16 -0.28,-0.5 -0.42,-1.07 -0.42,-1.71 0,-0.65 0.14,-1.22 0.41,-1.71 0.28,-0.49 0.66,-0.88 1.16,-1.16 0.49,-0.28 1.06,-0.42 1.7,-0.42 0.65,0 1.22,0.14 1.71,0.42 0.49,0.28 0.88,0.67 1.16,1.16 0.28,0.5 0.41,1.07 0.41,1.71 0,0.65 -0.14,1.22 -0.41,1.71 -0.28,0.49 -0.66,0.88 -1.15,1.16 -0.49,0.28 -1.05,0.42 -1.69,0.42zm0 -1.54c0.31,0 0.58,-0.08 0.82,-0.23 0.23,-0.15 0.42,-0.36 0.55,-0.62 0.13,-0.26 0.2,-0.57 0.2,-0.91 0,-0.34 -0.07,-0.65 -0.2,-0.91 -0.13,-0.26 -0.32,-0.47 -0.56,-0.62 -0.24,-0.15 -0.51,-0.23 -0.82,-0.23 -0.3,0 -0.57,0.08 -0.81,0.23 -0.24,0.15 -0.43,0.36 -0.56,0.62 -0.13,0.26 -0.2,0.57 -0.2,0.91 0,0.34 0.07,0.65 0.2,0.91 0.13,0.26 0.32,0.47 0.57,0.62 0.24,0.15 0.52,0.23 0.83,0.23zm8.83 1.38l-0.09 -1.17 0 -7.64 1.66 0 0 8.81 -1.57 0zm-1.98 0.15c-0.58,0 -1.08,-0.13 -1.5,-0.4 -0.42,-0.27 -0.75,-0.65 -0.99,-1.14 -0.23,-0.5 -0.35,-1.08 -0.35,-1.75 0,-0.68 0.12,-1.26 0.35,-1.76 0.24,-0.49 0.56,-0.87 0.99,-1.14 0.42,-0.27 0.92,-0.4 1.5,-0.4 0.53,0 0.97,0.13 1.34,0.4 0.37,0.27 0.64,0.65 0.84,1.14 0.19,0.49 0.29,1.08 0.29,1.76 0,0.67 -0.1,1.25 -0.29,1.75 -0.19,0.49 -0.47,0.88 -0.84,1.14 -0.36,0.27 -0.81,0.4 -1.34,0.4zm0.43 -1.52c0.29,0 0.54,-0.08 0.76,-0.23 0.22,-0.15 0.4,-0.36 0.52,-0.63 0.13,-0.27 0.19,-0.57 0.19,-0.92 0,-0.34 -0.06,-0.65 -0.19,-0.92 -0.13,-0.27 -0.3,-0.48 -0.52,-0.62 -0.22,-0.15 -0.48,-0.22 -0.77,-0.22 -0.3,0 -0.57,0.07 -0.79,0.22 -0.23,0.15 -0.41,0.35 -0.54,0.62 -0.13,0.27 -0.2,0.57 -0.2,0.92 0,0.34 0.07,0.65 0.2,0.92 0.13,0.27 0.32,0.48 0.55,0.63 0.23,0.15 0.5,0.23 0.8,0.23zm7.4 1.52c-0.62,0 -1.17,-0.14 -1.65,-0.42 -0.48,-0.28 -0.85,-0.67 -1.13,-1.16 -0.27,-0.5 -0.41,-1.07 -0.41,-1.71 0,-0.65 0.14,-1.22 0.42,-1.71 0.28,-0.49 0.67,-0.88 1.16,-1.16 0.49,-0.28 1.06,-0.42 1.69,-0.42 0.55,0 1.05,0.14 1.52,0.43 0.47,0.29 0.84,0.71 1.13,1.27 0.29,0.56 0.43,1.24 0.43,2.03l-1.69 0c0.01,-0.55 -0.05,-1 -0.17,-1.33 -0.12,-0.33 -0.29,-0.57 -0.51,-0.72 -0.22,-0.15 -0.47,-0.22 -0.77,-0.22 -0.33,0 -0.6,0.07 -0.83,0.2 -0.23,0.13 -0.4,0.34 -0.51,0.61 -0.11,0.27 -0.17,0.63 -0.17,1.06 0,0.38 0.08,0.69 0.23,0.94 0.15,0.25 0.35,0.44 0.6,0.57 0.25,0.13 0.53,0.2 0.83,0.2 0.33,0 0.59,-0.07 0.8,-0.21 0.21,-0.14 0.36,-0.33 0.47,-0.55l1.56 0.6c-0.18,0.35 -0.4,0.66 -0.69,0.91 -0.28,0.26 -0.61,0.45 -1,0.59 -0.39,0.13 -0.83,0.2 -1.32,0.2zm-2.1 -2.86l0.01 -1.3 4.43 0 0 1.3 -4.44 0zm6.23 2.7l0 -8.81 1.66 0 0 8.81 -1.66 0zm10.25 -3.64l-1.62 -0.42 2.83 -4.76 1.96 0 -3.17 5.17zm-1.67 3.64l0 -4.23 1.72 0 0 4.23 -1.72 0zm0.05 -3.64l-3.17 -5.17 1.96 0 2.83 4.76 -1.62 0.42zm8.29 3.64l-0.06 -1.27 0 -1.91c0,-0.38 -0.04,-0.7 -0.13,-0.96 -0.08,-0.26 -0.21,-0.47 -0.38,-0.6 -0.17,-0.14 -0.4,-0.21 -0.69,-0.21 -0.25,0 -0.48,0.05 -0.68,0.16 -0.2,0.11 -0.37,0.29 -0.52,0.53l-1.51 -0.52c0.12,-0.27 0.29,-0.53 0.52,-0.79 0.23,-0.26 0.52,-0.47 0.89,-0.63 0.36,-0.16 0.81,-0.25 1.34,-0.25 0.63,0 1.16,0.11 1.58,0.34 0.42,0.23 0.74,0.56 0.95,1 0.21,0.44 0.31,0.98 0.3,1.62l-0.04 3.48 -1.57 0zm-1.74 0.15c-0.76,0 -1.34,-0.17 -1.76,-0.5 -0.42,-0.34 -0.62,-0.81 -0.62,-1.42 0,-0.67 0.22,-1.18 0.67,-1.52 0.45,-0.34 1.08,-0.51 1.89,-0.51l1.6 0 0 1.23 -1.02 0c-0.55,0 -0.92,0.07 -1.13,0.2 -0.21,0.13 -0.31,0.31 -0.31,0.55 0,0.18 0.08,0.33 0.25,0.43 0.17,0.1 0.4,0.16 0.7,0.16 0.27,0 0.51,-0.06 0.72,-0.2 0.21,-0.13 0.37,-0.3 0.5,-0.5 0.12,-0.21 0.18,-0.42 0.18,-0.64l0.44 0c0,0.86 -0.17,1.52 -0.5,2 -0.33,0.48 -0.87,0.72 -1.62,0.72zm4.67 -0.15l0 -6.29 1.56 0 0.1 1.16 0 5.13 -1.66 0zm4.16 0l0 -3.22 1.66 -0.38 0 3.6 -1.66 0zm0 -3.22c0,-0.43 -0.05,-0.76 -0.14,-0.99 -0.1,-0.24 -0.23,-0.4 -0.41,-0.51 -0.18,-0.11 -0.38,-0.16 -0.62,-0.16 -0.43,-0.01 -0.76,0.12 -0.99,0.39 -0.23,0.27 -0.35,0.67 -0.35,1.2l-0.55 0c0,-0.67 0.1,-1.24 0.3,-1.7 0.2,-0.47 0.47,-0.82 0.82,-1.07 0.35,-0.25 0.77,-0.37 1.25,-0.37 0.76,0 1.35,0.23 1.76,0.7 0.41,0.47 0.61,1.18 0.6,2.14l-1.66 0.38zm2.98 3.22l0 -8.81 1.66 0 0 8.81 -1.66 0zm3.2 0l0 -6.29 1.66 0 0 6.29 -1.66 0zm0.83 -7.31c-0.25,0 -0.47,-0.09 -0.67,-0.28 -0.19,-0.19 -0.29,-0.41 -0.29,-0.67 0,-0.26 0.1,-0.48 0.29,-0.67 0.19,-0.19 0.41,-0.28 0.67,-0.28 0.26,0 0.48,0.09 0.67,0.28 0.19,0.19 0.28,0.41 0.28,0.67 0,0.26 -0.09,0.48 -0.28,0.67 -0.19,0.19 -0.41,0.28 -0.67,0.28zm3.95 5.71l-0.99 -1.15 3.22 -3.55 1.98 0 -4.2 4.69zm-1.59 1.6l0 -8.81 1.66 0 0 8.81 -1.66 0zm4.03 0l-2.09 -3.04 1.08 -1.14 2.96 4.19 -1.95 0z"/>
   <g>
    <g>
     <rect class="fil1" x="5.89" y="4.9" width="3.92" height="4.9" rx="0.28" ry="0.8"/>
     <rect class="fil1" x="-0" y="2.56" width="3.92" height="7.25" rx="0.28" ry="1.19"/>
     <rect class="fil1" x="11.77" y="0" width="3.92" height="9.81" rx="0.28" ry="1.61"/>
    </g>
    <path class="fil2" d="M7.44 14.84l-1.48 -2.33c-0.1,-0.15 -0.1,-0.33 -0.02,-0.49 0.09,-0.16 0.24,-0.25 0.42,-0.25l2.95 0c0.18,0 0.34,0.09 0.42,0.25 0.09,0.16 0.08,0.34 -0.02,0.49l-1.48 2.33c-0.09,0.14 -0.24,0.22 -0.41,0.22 -0.17,0 -0.32,-0.08 -0.41,-0.22z"/>
   </g>
  </g>
 </g>
</svg>
