<svg width="40" height="38" viewBox="0 0 40 38" fill="none" xmlns="http://www.w3.org/2000/svg">
<path fill-rule="evenodd" clip-rule="evenodd" d="M16.4721 12.3682H23.1319C24.0273 12.3682 24.7549 13.0957 24.7549 13.9911V23.1134C24.7549 24.0088 24.0273 24.7363 23.1319 24.7363H16.4721C15.5767 24.7363 14.8491 24.0088 14.8491 23.1134V13.9911C14.8491 13.0957 15.5767 12.3682 16.4721 12.3682Z" fill="#40B948"/>
<path fill-rule="evenodd" clip-rule="evenodd" d="M1.62297 6.45459H8.28276C9.17819 6.45459 9.90573 7.18213 9.90573 8.07756V23.132C9.90573 24.0275 9.17819 24.755 8.28276 24.755H1.62297C0.72754 24.755 0 24.0275 0 23.132V8.07756C0 7.18213 0.72754 6.45459 1.62297 6.45459Z" fill="#40B948"/>
<path fill-rule="evenodd" clip-rule="evenodd" d="M31.3215 0H37.9812C38.8767 0 39.6042 0.72754 39.6042 1.62297V23.132C39.6042 24.0275 38.8767 24.755 37.9812 24.755H31.3215C30.426 24.755 29.6985 24.0275 29.6985 23.132V1.62297C29.6985 0.72754 30.426 0 31.3215 0Z" fill="#40B948"/>
<path fill-rule="evenodd" clip-rule="evenodd" d="M18.7669 37.4404L15.036 31.5641C14.7935 31.1723 14.7748 30.7246 14.9987 30.3142C15.2225 29.9038 15.6143 29.6799 16.062 29.6799H23.5053C23.9717 29.6799 24.3634 29.9038 24.5686 30.3142C24.7925 30.7059 24.7738 31.1723 24.5313 31.5641L20.8003 37.4404C20.5765 37.8135 20.2034 38 19.7743 38C19.3452 38 18.9721 37.7948 18.7483 37.4404H18.7669Z" fill="#F88C37"/>
</svg>
