<svg width="76" height="72" viewBox="0 0 76 72" fill="none" xmlns="http://www.w3.org/2000/svg">
<path fill-rule="evenodd" clip-rule="evenodd" d="M31.2123 23.4344H43.8309C45.5275 23.4344 46.906 24.8129 46.906 26.5096V43.7938C46.906 45.4904 45.5275 46.8689 43.8309 46.8689H31.2123C29.5157 46.8689 28.1372 45.4904 28.1372 43.7938V26.5096C28.1372 24.8129 29.5157 23.4344 31.2123 23.4344Z" fill="#40B948"/>
<path fill-rule="evenodd" clip-rule="evenodd" d="M3.07706 12.2297H15.6956C17.3922 12.2297 18.7707 13.6082 18.7707 15.3048V43.8291C18.7707 45.5257 17.3922 46.9042 15.6956 46.9042H3.07706C1.38045 46.9042 0.00195312 45.5257 0.00195312 43.8291V15.3048C0.00195312 13.6082 1.38045 12.2297 3.07706 12.2297Z" fill="#40B948"/>
<path fill-rule="evenodd" clip-rule="evenodd" d="M59.3478 0H71.9664C73.663 0 75.0415 1.3785 75.0415 3.07511V43.8291C75.0415 45.5257 73.663 46.9042 71.9664 46.9042H59.3478C57.6512 46.9042 56.2727 45.5257 56.2727 43.8291V3.07511C56.2727 1.3785 57.6512 0 59.3478 0Z" fill="#40B948"/>
<path fill-rule="evenodd" clip-rule="evenodd" d="M35.5604 70.9396L28.4912 59.8056C28.0317 59.0633 27.9964 58.215 28.4205 57.4374C28.8447 56.6598 29.5869 56.2357 30.4352 56.2357H44.5383C45.422 56.2357 46.1642 56.6598 46.553 57.4374C46.9772 58.1797 46.9418 59.0633 46.4823 59.8056L39.4131 70.9396C38.989 71.6465 38.2821 72 37.4691 72C36.6561 72 35.9492 71.6112 35.5251 70.9396H35.5604Z" fill="#F88C37"/>
</svg>
