<svg width="80" height="80" viewBox="0 0 80 80" fill="none" xmlns="http://www.w3.org/2000/svg">
<path fill-rule="evenodd" clip-rule="evenodd" d="M33.2735 26.9835H46.7262C48.5349 26.9835 50.0047 28.4531 50.0047 30.2618V48.6887C50.0047 50.4974 48.5349 51.967 46.7262 51.967H33.2735C31.4648 51.967 29.9951 50.4974 29.9951 48.6887V30.2618C29.9951 28.4531 31.4648 26.9835 33.2735 26.9835Z" fill="#40B948"/>
<path fill-rule="evenodd" clip-rule="evenodd" d="M3.27838 15.0382H16.7311C18.5398 15.0382 20.0095 16.5078 20.0095 18.3166V48.7264C20.0095 50.5353 18.5398 52.0048 16.7311 52.0048H3.27838C1.46962 52.0048 0 50.5353 0 48.7264V18.3166C0 16.5078 1.46962 15.0382 3.27838 15.0382Z" fill="#40B948"/>
<path fill-rule="evenodd" clip-rule="evenodd" d="M63.269 2H76.7216C78.5305 2 80 3.46962 80 5.27838V48.7264C80 50.5353 78.5305 52.0048 76.7216 52.0048H63.269C61.4601 52.0048 59.9906 50.5353 59.9906 48.7264V5.27838C59.9906 3.46962 61.4601 2 63.269 2Z" fill="#40B948"/>
<path fill-rule="evenodd" clip-rule="evenodd" d="M37.9089 77.6292L30.3725 65.7592C29.8827 64.9677 29.8449 64.0634 30.2972 63.2344C30.7492 62.4054 31.5407 61.9531 32.445 61.9531H47.4804C48.4225 61.9531 49.2137 62.4054 49.6282 63.2344C50.0805 64.0256 50.0427 64.9677 49.5529 65.7592L42.0163 77.6292C41.5642 78.3829 40.8106 78.7596 39.9438 78.7596C39.077 78.7596 38.3234 78.3451 37.8713 77.6292H37.9089Z" fill="#F88C37"/>
</svg>
