<svg width="40" height="40" viewBox="0 0 40 40" fill="none" xmlns="http://www.w3.org/2000/svg">
<path fill-rule="evenodd" clip-rule="evenodd" d="M16.6367 13.4918H23.3631C24.2675 13.4918 25.0023 14.2265 25.0023 15.1309V24.3444C25.0023 25.2487 24.2675 25.9835 23.3631 25.9835H16.6367C15.7324 25.9835 14.9975 25.2487 14.9975 24.3444V15.1309C14.9975 14.2265 15.7324 13.4918 16.6367 13.4918Z" fill="#40B948"/>
<path fill-rule="evenodd" clip-rule="evenodd" d="M1.63919 7.5191H8.36554C9.26992 7.5191 10.0047 8.25391 10.0047 9.15829V24.3632C10.0047 25.2676 9.26992 26.0024 8.36554 26.0024H1.63919C0.734811 26.0024 0 25.2676 0 24.3632V9.15829C0 8.25391 0.734811 7.5191 1.63919 7.5191Z" fill="#40B948"/>
<path fill-rule="evenodd" clip-rule="evenodd" d="M31.6345 1H38.3608C39.2652 1 40 1.73481 40 2.63919V24.3632C40 25.2676 39.2652 26.0024 38.3608 26.0024H31.6345C30.7301 26.0024 29.9953 25.2676 29.9953 24.3632V2.63919C29.9953 1.73481 30.7301 1 31.6345 1Z" fill="#40B948"/>
<path fill-rule="evenodd" clip-rule="evenodd" d="M18.9544 38.8146L15.1862 32.8796C14.9413 32.4839 14.9224 32.0317 15.1486 31.6172C15.3746 31.2027 15.7703 30.9766 16.2225 30.9766H23.7402C24.2113 30.9766 24.6069 31.2027 24.8141 31.6172C25.0403 32.0128 25.0214 32.4839 24.7764 32.8796L21.0082 38.8146C20.7821 39.1914 20.4053 39.3798 19.9719 39.3798C19.5385 39.3798 19.1617 39.1726 18.9357 38.8146H18.9544Z" fill="#F88C37"/>
</svg>
